<mxfile host="app.diagrams.net" agent="Mozilla/5.0 (X11; Linux x86_64) AppleWebKit/537.36 (KHTML, like Gecko) Chrome/128.0.0.0 Safari/537.36" version="28.2.3">
  <diagram name="Page-1" id="IgD964iJOnV6OzrRSe_x">
    <mxGraphModel dx="891" dy="471" grid="1" gridSize="10" guides="1" tooltips="1" connect="1" arrows="1" fold="1" page="1" pageScale="1" pageWidth="827" pageHeight="1169" background="#FFFFFF" math="0" shadow="0">
      <root>
        <mxCell id="0" />
        <mxCell id="1" parent="0" />
        <mxCell id="2jk-eBSdWOUMMXmf7g27-6" value="" style="endArrow=none;html=1;rounded=0;" edge="1" parent="1">
          <mxGeometry width="50" height="50" relative="1" as="geometry">
            <mxPoint x="370" y="450" as="sourcePoint" />
            <mxPoint x="510" y="150" as="targetPoint" />
          </mxGeometry>
        </mxCell>
        <mxCell id="2jk-eBSdWOUMMXmf7g27-4" value="" style="verticalLabelPosition=bottom;verticalAlign=top;html=1;shape=hexagon;perimeter=hexagonPerimeter2;arcSize=6;size=0.27;labelBackgroundColor=light-dark(#99FF33,#EDEDED);fillColor=#d5e8d4;strokeColor=#82b366;rounded=0;" vertex="1" parent="1">
          <mxGeometry x="360" y="280" width="120" height="120" as="geometry" />
        </mxCell>
        <mxCell id="2jk-eBSdWOUMMXmf7g27-7" value="Driving ports" style="text;html=1;align=center;verticalAlign=middle;whiteSpace=wrap;rounded=0;fontSize=10;" vertex="1" parent="1">
          <mxGeometry x="240" y="180" width="60" height="20" as="geometry" />
        </mxCell>
        <mxCell id="2jk-eBSdWOUMMXmf7g27-8" value="Driven ports" style="text;html=1;align=center;verticalAlign=middle;whiteSpace=wrap;rounded=0;fontSize=10;" vertex="1" parent="1">
          <mxGeometry x="570" y="180" width="60" height="20" as="geometry" />
        </mxCell>
        <mxCell id="2jk-eBSdWOUMMXmf7g27-20" value="" style="rounded=0;orthogonalLoop=1;jettySize=auto;html=1;endArrow=halfCircle;endFill=0;endSize=6;strokeWidth=1;exitX=1;exitY=0.5;exitDx=0;exitDy=0;" edge="1" target="2jk-eBSdWOUMMXmf7g27-22" parent="1" source="2jk-eBSdWOUMMXmf7g27-26">
          <mxGeometry relative="1" as="geometry">
            <mxPoint x="280" y="240" as="sourcePoint" />
          </mxGeometry>
        </mxCell>
        <mxCell id="2jk-eBSdWOUMMXmf7g27-21" value="" style="rounded=0;orthogonalLoop=1;jettySize=auto;html=1;endArrow=oval;endFill=0;sourcePerimeterSpacing=0;targetPerimeterSpacing=0;endSize=10;exitX=0.133;exitY=0.238;exitDx=0;exitDy=0;exitPerimeter=0;fillColor=#d5e8d4;strokeColor=#82b366;" edge="1" target="2jk-eBSdWOUMMXmf7g27-22" parent="1" source="2jk-eBSdWOUMMXmf7g27-4">
          <mxGeometry relative="1" as="geometry">
            <mxPoint x="300" y="270" as="sourcePoint" />
          </mxGeometry>
        </mxCell>
        <mxCell id="2jk-eBSdWOUMMXmf7g27-22" value="" style="ellipse;whiteSpace=wrap;html=1;align=center;aspect=fixed;fillColor=#d5e8d4;strokeColor=#82b366;resizable=0;perimeter=centerPerimeter;rotatable=0;allowArrows=0;points=[];outlineConnect=1;rounded=0;" vertex="1" parent="1">
          <mxGeometry x="350" y="290" width="10" height="10" as="geometry" />
        </mxCell>
        <mxCell id="2jk-eBSdWOUMMXmf7g27-23" value="" style="rounded=0;orthogonalLoop=1;jettySize=auto;html=1;endArrow=halfCircle;endFill=0;endSize=6;strokeWidth=1;exitX=0.945;exitY=0.467;exitDx=0;exitDy=0;exitPerimeter=0;" edge="1" target="2jk-eBSdWOUMMXmf7g27-25" parent="1" source="2jk-eBSdWOUMMXmf7g27-41">
          <mxGeometry relative="1" as="geometry">
            <mxPoint x="330" y="430" as="sourcePoint" />
          </mxGeometry>
        </mxCell>
        <mxCell id="2jk-eBSdWOUMMXmf7g27-24" value="" style="rounded=0;orthogonalLoop=1;jettySize=auto;html=1;endArrow=oval;endFill=0;sourcePerimeterSpacing=0;targetPerimeterSpacing=0;endSize=10;exitX=0.133;exitY=0.754;exitDx=0;exitDy=0;exitPerimeter=0;fillColor=#d5e8d4;strokeColor=#82b366;" edge="1" target="2jk-eBSdWOUMMXmf7g27-25" parent="1" source="2jk-eBSdWOUMMXmf7g27-4">
          <mxGeometry relative="1" as="geometry">
            <mxPoint x="280" y="380" as="sourcePoint" />
          </mxGeometry>
        </mxCell>
        <mxCell id="2jk-eBSdWOUMMXmf7g27-25" value="" style="ellipse;whiteSpace=wrap;html=1;align=center;aspect=fixed;fillColor=#d5e8d4;strokeColor=#82b366;resizable=0;perimeter=centerPerimeter;rotatable=0;allowArrows=0;points=[];outlineConnect=1;rounded=0;" vertex="1" parent="1">
          <mxGeometry x="350" y="380" width="10" height="10" as="geometry" />
        </mxCell>
        <mxCell id="2jk-eBSdWOUMMXmf7g27-26" value="Backoffice" style="html=1;whiteSpace=wrap;fontSize=6;rounded=0;" vertex="1" parent="1">
          <mxGeometry x="240" y="270" width="70" height="10" as="geometry" />
        </mxCell>
        <mxCell id="2jk-eBSdWOUMMXmf7g27-27" value="Application" style="text;html=1;align=center;verticalAlign=middle;whiteSpace=wrap;rounded=0;fontSize=8;" vertex="1" parent="1">
          <mxGeometry x="390" y="330" width="60" height="20" as="geometry" />
        </mxCell>
        <mxCell id="2jk-eBSdWOUMMXmf7g27-28" value="" style="rounded=0;orthogonalLoop=1;jettySize=auto;html=1;endArrow=halfCircle;endFill=0;endSize=6;strokeWidth=1;exitX=0.858;exitY=0.225;exitDx=0;exitDy=0;exitPerimeter=0;fillColor=#d5e8d4;strokeColor=#82b366;" edge="1" target="2jk-eBSdWOUMMXmf7g27-30" parent="1" source="2jk-eBSdWOUMMXmf7g27-4">
          <mxGeometry relative="1" as="geometry">
            <mxPoint x="530" y="280" as="sourcePoint" />
          </mxGeometry>
        </mxCell>
        <mxCell id="2jk-eBSdWOUMMXmf7g27-29" value="" style="rounded=0;orthogonalLoop=1;jettySize=auto;html=1;endArrow=oval;endFill=0;sourcePerimeterSpacing=0;targetPerimeterSpacing=0;endSize=10;exitX=0;exitY=0.5;exitDx=0;exitDy=0;" edge="1" target="2jk-eBSdWOUMMXmf7g27-30" parent="1" source="2jk-eBSdWOUMMXmf7g27-47">
          <mxGeometry relative="1" as="geometry">
            <mxPoint x="550" y="340" as="sourcePoint" />
          </mxGeometry>
        </mxCell>
        <mxCell id="2jk-eBSdWOUMMXmf7g27-30" value="" style="ellipse;whiteSpace=wrap;html=1;align=center;aspect=fixed;fillColor=none;strokeColor=none;resizable=0;perimeter=centerPerimeter;rotatable=0;allowArrows=0;points=[];outlineConnect=1;rounded=0;" vertex="1" parent="1">
          <mxGeometry x="480" y="290" width="10" height="10" as="geometry" />
        </mxCell>
        <mxCell id="2jk-eBSdWOUMMXmf7g27-31" value="" style="rounded=0;orthogonalLoop=1;jettySize=auto;html=1;endArrow=halfCircle;endFill=0;endSize=6;strokeWidth=1;exitX=0.877;exitY=0.747;exitDx=0;exitDy=0;exitPerimeter=0;fillColor=#d5e8d4;strokeColor=#82b366;" edge="1" target="2jk-eBSdWOUMMXmf7g27-33" parent="1" source="2jk-eBSdWOUMMXmf7g27-4">
          <mxGeometry relative="1" as="geometry">
            <mxPoint x="470" y="420" as="sourcePoint" />
          </mxGeometry>
        </mxCell>
        <mxCell id="2jk-eBSdWOUMMXmf7g27-32" value="" style="rounded=0;orthogonalLoop=1;jettySize=auto;html=1;endArrow=oval;endFill=0;sourcePerimeterSpacing=0;targetPerimeterSpacing=0;endSize=10;exitX=0;exitY=0.5;exitDx=0;exitDy=0;" edge="1" target="2jk-eBSdWOUMMXmf7g27-33" parent="1" source="2jk-eBSdWOUMMXmf7g27-49">
          <mxGeometry relative="1" as="geometry">
            <mxPoint x="530" y="440" as="sourcePoint" />
          </mxGeometry>
        </mxCell>
        <mxCell id="2jk-eBSdWOUMMXmf7g27-33" value="" style="ellipse;whiteSpace=wrap;html=1;align=center;aspect=fixed;fillColor=none;strokeColor=none;resizable=0;perimeter=centerPerimeter;rotatable=0;allowArrows=0;points=[];outlineConnect=1;rounded=0;" vertex="1" parent="1">
          <mxGeometry x="490" y="380" width="10" height="10" as="geometry" />
        </mxCell>
        <mxCell id="2jk-eBSdWOUMMXmf7g27-34" value="For admin&lt;div&gt;&lt;br&gt;&lt;/div&gt;" style="text;html=1;align=center;verticalAlign=middle;whiteSpace=wrap;rounded=0;fontSize=6;rotation=0;" vertex="1" parent="1">
          <mxGeometry x="325" y="265" width="60" height="20" as="geometry" />
        </mxCell>
        <mxCell id="2jk-eBSdWOUMMXmf7g27-36" value="For using" style="text;html=1;align=center;verticalAlign=middle;whiteSpace=wrap;rounded=0;fontSize=6;rotation=0;" vertex="1" parent="1">
          <mxGeometry x="310" y="360" width="60" height="20" as="geometry" />
        </mxCell>
        <mxCell id="2jk-eBSdWOUMMXmf7g27-37" value="For notifying&lt;div&gt;&lt;br&gt;&lt;/div&gt;" style="text;html=1;align=center;verticalAlign=middle;whiteSpace=wrap;rounded=0;fontSize=6;rotation=0;" vertex="1" parent="1">
          <mxGeometry x="455" y="265" width="60" height="20" as="geometry" />
        </mxCell>
        <mxCell id="2jk-eBSdWOUMMXmf7g27-38" value="For getting data" style="text;html=1;align=center;verticalAlign=middle;whiteSpace=wrap;rounded=0;fontSize=6;rotation=0;" vertex="1" parent="1">
          <mxGeometry x="480" y="360" width="60" height="20" as="geometry" />
        </mxCell>
        <mxCell id="2jk-eBSdWOUMMXmf7g27-39" value="Test" style="html=1;whiteSpace=wrap;fontSize=6;rounded=0;" vertex="1" parent="1">
          <mxGeometry x="240" y="290" width="70" height="10" as="geometry" />
        </mxCell>
        <mxCell id="2jk-eBSdWOUMMXmf7g27-41" value="" style="verticalLabelPosition=bottom;verticalAlign=middle;html=1;shape=hexagon;perimeter=hexagonPerimeter2;arcSize=6;size=0.27;rounded=0;" vertex="1" parent="1">
          <mxGeometry x="255" y="380" width="55" height="30" as="geometry" />
        </mxCell>
        <mxCell id="2jk-eBSdWOUMMXmf7g27-42" value="&lt;div&gt;Other app&lt;/div&gt;" style="text;html=1;align=center;verticalAlign=middle;whiteSpace=wrap;rounded=0;fontSize=6;rotation=0;" vertex="1" parent="1">
          <mxGeometry x="250" y="385" width="60" height="20" as="geometry" />
        </mxCell>
        <mxCell id="2jk-eBSdWOUMMXmf7g27-45" value="" style="rounded=0;orthogonalLoop=1;jettySize=auto;html=1;endArrow=halfCircle;endFill=0;endSize=6;strokeWidth=1;fontSize=12;curved=1;entryX=0.4;entryY=0.9;entryDx=0;entryDy=0;entryPerimeter=0;exitX=1;exitY=0.5;exitDx=0;exitDy=0;" edge="1" target="2jk-eBSdWOUMMXmf7g27-22" parent="1" source="2jk-eBSdWOUMMXmf7g27-39">
          <mxGeometry relative="1" as="geometry">
            <mxPoint x="395" y="355" as="sourcePoint" />
          </mxGeometry>
        </mxCell>
        <mxCell id="2jk-eBSdWOUMMXmf7g27-46" value="" style="ellipse;whiteSpace=wrap;html=1;align=center;aspect=fixed;fillColor=none;strokeColor=none;resizable=0;perimeter=centerPerimeter;rotatable=0;allowArrows=0;points=[];outlineConnect=1;rounded=0;" vertex="1" parent="1">
          <mxGeometry x="370" y="350" width="10" height="10" as="geometry" />
        </mxCell>
        <mxCell id="2jk-eBSdWOUMMXmf7g27-47" value="Email" style="html=1;whiteSpace=wrap;fontSize=6;rounded=0;" vertex="1" parent="1">
          <mxGeometry x="560" y="260" width="70" height="10" as="geometry" />
        </mxCell>
        <mxCell id="2jk-eBSdWOUMMXmf7g27-48" value="Slack" style="html=1;whiteSpace=wrap;fontSize=6;rounded=0;" vertex="1" parent="1">
          <mxGeometry x="560" y="275" width="70" height="10" as="geometry" />
        </mxCell>
        <mxCell id="2jk-eBSdWOUMMXmf7g27-49" value="Database" style="html=1;whiteSpace=wrap;fontSize=6;rounded=0;" vertex="1" parent="1">
          <mxGeometry x="560" y="380" width="70" height="10" as="geometry" />
        </mxCell>
        <mxCell id="2jk-eBSdWOUMMXmf7g27-51" value="" style="ellipse;whiteSpace=wrap;html=1;align=center;aspect=fixed;fillColor=none;strokeColor=none;resizable=0;perimeter=centerPerimeter;rotatable=0;allowArrows=0;points=[];outlineConnect=1;rounded=0;" vertex="1" parent="1">
          <mxGeometry x="370" y="350" width="10" height="10" as="geometry" />
        </mxCell>
        <mxCell id="2jk-eBSdWOUMMXmf7g27-52" value="" style="endArrow=none;html=1;rounded=0;exitX=1.05;exitY=0.25;exitDx=0;exitDy=0;exitPerimeter=0;entryX=0;entryY=0.5;entryDx=0;entryDy=0;" edge="1" parent="1" source="2jk-eBSdWOUMMXmf7g27-30" target="2jk-eBSdWOUMMXmf7g27-48">
          <mxGeometry width="50" height="50" relative="1" as="geometry">
            <mxPoint x="560" y="320" as="sourcePoint" />
            <mxPoint x="610" y="330" as="targetPoint" />
          </mxGeometry>
        </mxCell>
      </root>
    </mxGraphModel>
  </diagram>
</mxfile>
